<svg xmlns="http://www.w3.org/2000/svg" viewBox="0 0 200 200" width="200" height="200">
  <defs>
    <linearGradient id="bg" x1="0" y1="0" x2="0" y2="1">
      <stop offset="0" stop-color="#1D2547"/><stop offset="1" stop-color="#0A0E1E"/>
    </linearGradient>
    <linearGradient id="cmd" x1="0" y1="0" x2="1" y2="1">
      <stop offset="0" stop-color="#4F8DF7"/><stop offset="1" stop-color="#A78BFA"/>
    </linearGradient>
  </defs>
  <rect width="200" height="200" rx="44" fill="url(#bg)"/>
  <circle cx="100" cy="96" r="58" fill="#4F8DF7" fill-opacity="0.10"/>
  <g transform="translate(100 96) scale(5.2) translate(-12 -12)">
    <path d="M18 3a3 3 0 0 0-3 3v12a3 3 0 0 0 3 3 3 3 0 0 0 3-3 3 3 0 0 0-3-3H6a3 3 0 0 0-3 3 3 3 0 0 0 3 3 3 3 0 0 0 3-3V6a3 3 0 0 0-3-3 3 3 0 0 0-3 3 3 3 0 0 0 3 3h12a3 3 0 0 0 3-3 3 3 0 0 0-3-3z"
      fill="none" stroke="url(#cmd)" stroke-width="2.1" stroke-linecap="round" stroke-linejoin="round"/>
  </g>
  <path d="M154 30l3 7.5 7.5 3-7.5 3-3 7.5-3-7.5-7.5-3 7.5-3z" fill="#9DBDFF" fill-opacity="0.95"/>
  <circle cx="167" cy="58" r="3" fill="#9DBDFF" fill-opacity="0.6"/>
</svg>
